<svg xmlns="http://www.w3.org/2000/svg" viewBox="0 0 200 200" width="320" height="320" style="overflow: visible;" id="pulse-buddy-idle-soft-loop">
    <style>
        /* === CSS VARIABLES and BASE === */
        .stroke-main { stroke: #253549; stroke-width: 5; stroke-linecap: round; stroke-linejoin: round; }
        .fill-base { fill: #F0EDE6; }
        .fill-accent-sky { fill: #38BDF8; }
        .fill-accent-amber { fill: #FFB830; }
        .fill-dark { fill: #253549; }

        /* =========================================
           ANIMATIONS FOR SOFT IDLE (3.2s Loop)
           ========================================= */
        #pulse-buddy-wrapper {
            /* Kết hợp nhấp nhô (bob) và phồng xẹp (breathe) */
            animation: soft-breathe 3.2s ease-in-out infinite;
            transform-origin: 100px 172px; /* Tâm ở đáy để thân hình giãn lên trên */
        }
        #shadow {
            /* Bóng mờ co giãn nương theo nhịp thở */
            animation: soft-shadow 3.2s ease-in-out infinite;
            transform-origin: 100px 180px;
        }
        #heartCore {
            /* Tim đập rất êm ái */
            animation: soft-heart 3.2s ease-in-out infinite;
            transform-origin: 100px 136px;
        }
        .pupil-group {
            /* Chớp mắt chu kỳ 5s (lệch pha với thở 3.2s tạo cảm giác ngẫu nhiên) */
            animation: random-blink 5s infinite;
        }
        #leftArm {
            animation: arm-sway-left 3.2s ease-in-out infinite;
            transform-origin: 52px 120px;
        }
        #rightArm {
            animation: arm-sway-right 3.2s ease-in-out infinite;
            transform-origin: 148px 120px;
        }

        /* =========================================
           KEYFRAMES
           ========================================= */
        @keyframes soft-breathe {
            /* Thở ra (xẹp, lùn xuống xíu) -> Hít vào (căng lên, thon xíu) */
            0%, 100% { transform: translateY(0) scale(1, 1); }
            50% { transform: translateY(-2px) scale(0.99, 1.015); } /* Very subtle */
        }
        
        @keyframes soft-shadow {
            0%, 100% { transform: scale(1); opacity: 0.15; }
            50% { transform: scale(0.92); opacity: 0.12; }
        }

        @keyframes soft-heart {
            0%, 100% { transform: scale(1); }
            50% { transform: scale(1.04); }
        }

        @keyframes random-blink {
            0%, 45%, 49%, 85%, 89%, 100% { transform: scaleY(1); }
            46%, 48% { transform: scaleY(0.1); } /* Double blink (Chớp kép nhanh) */
            86%, 88% { transform: scaleY(0.1); } /* Single blink (Chớp đơn) */
        }

        @keyframes arm-sway-left {
            0%, 100% { transform: rotate(0deg); }
            50% { transform: rotate(3deg); }
        }

        @keyframes arm-sway-right {
            0%, 100% { transform: rotate(0deg); }
            50% { transform: rotate(-3deg); }
        }
    </style>

    <!-- BÓNG ĐỔ DƯỚI ĐẤT -->
    <g id="shadow">
        <ellipse cx="100" cy="180" rx="45" ry="8" fill="#253549" />
    </g>

    <!-- WRAPPER CHÍNH (Bob + Breathe) -->
    <g id="pulse-buddy-wrapper">

        <!-- LEFT ARM -->
        <g id="leftArm">
            <!-- Tay hơi giương thả lỏng, nhúc nhích theo nhịp thở -->
            <path class="stroke-main fill-base" d="M 52 120 C 30 115, 20 130, 32 145 C 38 152, 48 145, 50 135" />
        </g>

        <!-- RIGHT ARM -->
        <g id="rightArm">
            <path class="stroke-main fill-base" d="M 148 120 C 170 115, 180 130, 168 145 C 162 152, 152 145, 150 135" />
        </g>

        <!-- THÂN CHÍNH (BODY) -->
        <g id="body">
            <path class="stroke-main fill-base" d="M 100 35 C 140 35, 155 80, 155 135 C 155 162, 135 172, 100 172 C 65 172, 45 162, 45 135 C 45 80, 60 35, 100 35 Z" />
        </g>

        <!-- TRÁI TIM Ở NGỰC (HEART CORE) -->
        <g id="heartCore">
            <path class="fill-accent-sky" d="M 100 146 C 100 146, 86 136, 86 128 C 86 122, 91 118, 97 118 C 100 118, 100 121, 100 121 C 100 121, 100 118, 103 118 C 109 118, 114 122, 114 128 C 114 136, 100 146, 100 146 Z" />
            <path class="stroke-main" fill="none" d="M 100 146 C 100 146, 86 136, 86 128 C 86 122, 91 118, 97 118 C 100 118, 100 121, 100 121 C 100 121, 100 118, 103 118 C 109 118, 114 122, 114 128 C 114 136, 100 146, 100 146 Z" />
        </g>

        <!-- KHUÔN MẶT (FACE) -->
        <g id="face">
            
            <!-- Má hồng -->
            <g id="blush">
                <ellipse cx="68" cy="104" rx="7" ry="3.5" class="fill-accent-amber" opacity="0.6" />
                <ellipse cx="132" cy="104" rx="7" ry="3.5" class="fill-accent-amber" opacity="0.6" />
            </g>

            <!-- Kính Nerd -->
            <g id="glasses">
                <path class="stroke-main" fill="none" d="M 92 88 Q 100 84 108 88" stroke-width="4" />
                <circle cx="76" cy="90" r="16" class="stroke-main" fill="none" stroke-width="4.5" />
                <circle cx="124" cy="90" r="16" class="stroke-main" fill="none" stroke-width="4.5" />
            </g>

            <!-- MẮT (EYES) - Có gắn animation chớp ngẫu nhiên -->
            <g id="eyes">
                <g class="pupil-group" style="transform-origin: 76px 90px;">
                    <circle cx="76" cy="90" r="5" class="fill-dark" />
                    <circle cx="74" cy="88" r="1.5" fill="#ffffff" />
                </g>
                <g class="pupil-group" style="transform-origin: 124px 90px;">
                    <circle cx="124" cy="90" r="5" class="fill-dark" />
                    <circle cx="122" cy="88" r="1.5" fill="#ffffff" />
                </g>
            </g>

            <!-- MIỆNG (MOUTH) -->
            <g id="mouth">
                <path class="stroke-main" fill="none" d="M 93 102 Q 100 108 107 102" stroke-width="4" />
            </g>
            
        </g>
    </g>
</svg>